HIERARCHY
ROOT joint_Root
{
	OFFSET 0.0 0.0 0.0
	CHANNELS 6 Xposition Yposition Zposition Zrotation Xrotation Yrotation 
	JOINT Hips
	{
		OFFSET -0.726466 93.3139 -2.00062
		CHANNELS 6 Xposition Yposition Zposition Zrotation Xrotation Yrotation 
		JOINT Spine
		{
			OFFSET 15.7357 0.0 0.0
			CHANNELS 6 Xposition Yposition Zposition Zrotation Xrotation Yrotation 
			JOINT Chest
			{
				OFFSET 8.98455 -0.406207 0.0
				CHANNELS 6 Xposition Yposition Zposition Zrotation Xrotation Yrotation 
				JOINT Neck
				{
					OFFSET 16.3773 0.0 0.0
					CHANNELS 6 Xposition Yposition Zposition Zrotation Xrotation Yrotation 
					JOINT Head
					{
						OFFSET 6.45672 0.0 0.0
						CHANNELS 6 Xposition Yposition Zposition Zrotation Xrotation Yrotation 
						End Site
						{
							OFFSET 0.0 0.0 0.0
						}
					}
				}
				JOINT Shoulder_L
				{
					OFFSET 12.9942 -0.242716 4.98039
					CHANNELS 6 Xposition Yposition Zposition Zrotation Xrotation Yrotation 
					JOINT UpperArm_L
					{
						OFFSET 5.34809 0.0 0.0
						CHANNELS 6 Xposition Yposition Zposition Zrotation Xrotation Yrotation 
						JOINT LowerArm_L
						{
							OFFSET 24.3286 1.87007e-05 0.0
							CHANNELS 6 Xposition Yposition Zposition Zrotation Xrotation Yrotation 
							JOINT Hand_L
							{
								OFFSET 22.2916 0.0 0.0
								CHANNELS 6 Xposition Yposition Zposition Zrotation Xrotation Yrotation 
								End Site
								{
									OFFSET 0.0 0.0 0.0
								}
							}
						}
					}
				}
				JOINT Shoulder_R
				{
					OFFSET 12.9945 -0.242716 -4.98039
					CHANNELS 6 Xposition Yposition Zposition Zrotation Xrotation Yrotation 
					JOINT UpperArm_R
					{
						OFFSET -5.34813 0.0 0.0
						CHANNELS 6 Xposition Yposition Zposition Zrotation Xrotation Yrotation 
						JOINT LowerArm_R
						{
							OFFSET -24.3289 0.000322201 0.0
							CHANNELS 6 Xposition Yposition Zposition Zrotation Xrotation Yrotation 
							JOINT Hand_R
							{
								OFFSET -22.2915 -0.000108084 0.0
								CHANNELS 6 Xposition Yposition Zposition Zrotation Xrotation Yrotation 
								End Site
								{
									OFFSET 0.0 0.0 0.0
								}
							}
						}
					}
				}
			}
		}
		JOINT UpperLeg_L
		{
			OFFSET -2.19248 -6.46944 0.0
			CHANNELS 6 Xposition Yposition Zposition Zrotation Xrotation Yrotation 
			JOINT LowerLeg_L
			{
				OFFSET 39.0811 0.0 -1.23785e-05
				CHANNELS 6 Xposition Yposition Zposition Zrotation Xrotation Yrotation 
				JOINT Foot_L
				{
					OFFSET 40.9854 0.0 -1.26872e-05
					CHANNELS 6 Xposition Yposition Zposition Zrotation Xrotation Yrotation 
					JOINT Toes_L
					{
						OFFSET 11.7543 0.0 0.0
						CHANNELS 6 Xposition Yposition Zposition Zrotation Xrotation Yrotation 
						End Site
						{
							OFFSET 0.0 0.0 0.0
						}
					}
				}
			}
		}
		JOINT UpperLeg_R
		{
			OFFSET -2.19251 6.46944 0.0
			CHANNELS 6 Xposition Yposition Zposition Zrotation Xrotation Yrotation 
			JOINT LowerLeg_R
			{
				OFFSET -39.0811 -0.00228153 -0.0401928
				CHANNELS 6 Xposition Yposition Zposition Zrotation Xrotation Yrotation 
				JOINT Foot_R
				{
					OFFSET -40.9854 0.0 0.0
					CHANNELS 6 Xposition Yposition Zposition Zrotation Xrotation Yrotation 
					JOINT Toes_R
					{
						OFFSET -11.7543 0.0 0.0
						CHANNELS 6 Xposition Yposition Zposition Zrotation Xrotation Yrotation 
						End Site
						{
							OFFSET 0.0 0.0 0.0
						}
					}
				}
			}
		}
	}
}
MOTION
Frames:	6
Frame Time:	0.0333333
0.000000 0.000000 0.000000 0.000000 0.000000 -0.000000 -0.341173 92.233200 0.474035 87.850500 -1.025780 3.943490 15.735700 0.000005 -0.000001 98.475000 86.007400 -99.134700 8.984550 -0.406207 -0.000000 0.139417 1.220400 -1.320010 16.377300 -0.000001 -0.000001 4.374340 -2.006000 0.382493 6.456720 -0.000001 -0.000000 1.263370 -1.662100 -6.300230 12.994200 -0.242716 4.980390 -90.024400 0.075955 -72.187300 5.348090 -0.000007 -0.000001 -67.900400 38.111600 -12.584900 24.328600 0.000019 0.000005 0.701101 1.664330 -22.846100 22.291600 -0.000001 0.000005 5.512680 5.485970 -5.978670 12.994500 -0.242716 -4.980390 89.305100 2.081920 -71.538800 -5.348130 -0.000001 -0.000004 -72.289900 -24.241200 -83.723700 -24.328900 0.000322 -0.000009 12.137300 -0.804582 -93.736900 -22.291500 -0.000108 -0.000004 26.023300 5.374540 -2.127750 -2.192480 -6.469440 -0.000000 -175.656000 -5.501410 -1.809590 39.081100 -0.000007 -0.000012 -0.111867 0.266314 22.785200 40.985400 -0.000006 -0.000013 -0.231290 2.257010 -67.258100 11.754300 -0.000000 0.000003 -0.000054 -0.000604 -16.601000 -2.192510 6.469440 -0.000001 179.624000 13.051700 -179.617000 -39.081100 -0.002282 -0.040193 0.007680 -0.012278 19.540900 -40.985400 0.000008 0.000006 4.596140 7.167340 -66.629300 -11.754300 -0.000006 -0.000006 -0.008043 -0.088386 -20.172300
0.000000 0.000000 0.000000 0.000000 0.000000 -0.000000 -0.303445 92.238800 0.490885 87.850300 -1.164070 3.922710 15.735700 0.000005 -0.000001 98.395700 86.015000 -99.043300 8.984550 -0.406207 -0.000000 0.125838 1.206550 -1.295620 16.377300 -0.000001 -0.000001 4.386640 -1.996090 0.367514 6.456720 -0.000001 -0.000000 1.337030 -1.623430 -6.310160 12.994200 -0.242716 4.980390 -90.014700 0.045571 -72.170500 5.348090 -0.000007 -0.000001 -67.970400 38.240900 -12.473200 24.328600 0.000019 0.000005 0.717214 1.710900 -22.746300 22.291600 -0.000001 0.000005 5.476690 5.485980 -5.978920 12.994500 -0.242716 -4.980390 89.310600 2.064230 -71.528900 -5.348130 -0.000001 -0.000004 -72.344800 -24.180100 -83.832600 -24.328900 0.000322 -0.000009 12.061400 -0.758809 -93.547700 -22.291500 -0.000108 -0.000004 25.991400 5.373600 -2.098360 -2.192480 -6.469440 -0.000000 -175.682000 -5.580800 -1.760960 39.081100 -0.000007 -0.000012 -0.111278 0.265734 22.721900 40.985400 -0.000006 -0.000013 -0.222965 2.181800 -67.257200 11.754300 -0.000000 0.000003 -0.000053 -0.000595 -16.600600 -2.192510 6.469440 -0.000001 179.612000 12.943500 -179.618000 -39.081100 -0.002282 -0.040193 0.009071 -0.016238 19.496300 -40.985400 0.000008 0.000006 4.577390 7.195900 -66.602300 -11.754300 -0.000006 -0.000006 -0.008088 -0.088750 -20.187200
0.000000 0.000000 0.000000 0.000000 0.000000 -0.000000 -0.276730 92.236300 0.486005 87.825100 -1.222060 3.915960 15.735700 0.000005 -0.000001 98.136700 86.014100 -98.761500 8.984550 -0.406207 -0.000000 0.132279 1.169590 -1.250220 16.377300 -0.000001 -0.000001 4.455640 -2.051550 0.425853 6.456720 -0.000001 -0.000000 1.336790 -1.673990 -6.348480 12.994200 -0.242716 4.980390 -90.022300 0.069568 -72.199300 5.348090 -0.000007 -0.000001 -68.005300 38.243300 -12.336100 24.328600 0.000019 0.000005 0.721916 1.730590 -22.646400 22.291600 -0.000001 0.000005 5.540100 5.484590 -5.924960 12.994500 -0.242716 -4.980390 89.320200 2.031020 -71.489000 -5.348130 -0.000001 -0.000004 -72.401900 -24.121800 -83.980500 -24.328900 0.000322 -0.000009 12.012100 -0.723923 -93.399300 -22.291500 -0.000108 -0.000004 25.980100 5.371680 -2.038840 -2.192480 -6.469440 -0.000000 -175.675000 -5.631950 -1.789950 39.081100 -0.000007 -0.000012 -0.112086 0.267055 22.768400 40.985400 -0.000006 -0.000013 -0.205454 2.162020 -67.278600 11.754300 -0.000000 0.000003 -0.000043 -0.000498 -16.596900 -2.192510 6.469440 -0.000001 179.625000 12.892800 -179.634000 -39.081100 -0.002282 -0.040193 0.009219 -0.016642 19.510300 -40.985400 0.000008 0.000006 4.632720 7.198570 -66.615100 -11.754300 -0.000006 -0.000006 -0.008124 -0.089045 -20.199200
0.000000 0.000000 0.000000 0.000000 0.000000 -0.000000 -0.248479 92.239300 0.482609 87.854800 -1.293240 3.915540 15.735700 0.000005 -0.000001 98.069000 86.003200 -98.697300 8.984550 -0.406207 -0.000000 0.155267 1.163430 -1.257210 16.377300 -0.000001 -0.000001 4.469960 -2.139980 0.496662 6.456720 -0.000001 -0.000000 1.433580 -1.801880 -6.279160 12.994200 -0.242716 4.980390 -90.018700 0.058206 -72.194700 5.348090 -0.000007 -0.000001 -68.065000 38.075000 -12.263400 24.328600 0.000019 0.000005 0.772132 1.869430 -22.445700 22.291600 -0.000001 0.000005 5.502720 5.483520 -5.883790 12.994500 -0.242716 -4.980390 89.334900 1.984560 -71.468300 -5.348130 -0.000001 -0.000004 -72.351900 -24.142300 -83.975500 -24.328900 0.000322 -0.000009 11.778400 -0.709299 -93.398800 -22.291500 -0.000108 -0.000004 26.037100 5.373350 -2.090630 -2.192480 -6.469440 -0.000000 -175.727000 -5.622900 -1.761820 39.081100 -0.000007 -0.000012 -0.111661 0.266630 22.723300 40.985400 -0.000006 -0.000013 -0.207453 2.081170 -67.260400 11.754300 -0.000000 0.000003 -0.000058 -0.000639 -16.602300 -2.192510 6.469440 -0.000001 179.559000 12.844500 -179.640000 -39.081100 -0.002282 -0.040193 0.004992 -0.004716 19.492200 -40.985400 0.000008 0.000006 4.430220 7.271730 -66.559700 -11.754300 -0.000006 -0.000006 -0.007843 -0.086749 -20.105400
0.000000 0.000000 0.000000 0.000000 0.000000 -0.000000 -0.217736 92.231900 0.475615 87.825400 -1.392590 3.915710 15.735700 0.000005 -0.000001 98.230600 85.982700 -98.845100 8.984550 -0.406207 -0.000000 0.192653 1.190500 -1.230130 16.377300 -0.000001 -0.000001 4.511770 -2.249510 0.555377 6.456720 -0.000001 -0.000000 1.478080 -1.983920 -6.184280 12.994200 -0.242716 4.980390 -90.023900 0.074501 -72.217100 5.348090 -0.000007 -0.000001 -68.068700 37.898600 -12.175300 24.328600 0.000019 0.000005 0.859341 2.092850 -22.328500 22.291600 -0.000001 0.000005 5.637110 5.483460 -5.881430 12.994500 -0.242716 -4.980390 89.335300 1.980590 -71.443700 -5.348130 -0.000001 -0.000004 -72.081600 -24.234700 -83.815000 -24.328900 0.000322 -0.000009 11.740000 -0.730491 -93.511800 -22.291500 -0.000108 -0.000004 26.051900 5.372570 -2.066550 -2.192480 -6.469440 -0.000000 -175.731000 -5.641570 -1.793230 39.081100 -0.000007 -0.000012 -0.110544 0.262934 22.803200 40.985400 -0.000006 -0.000013 -0.196714 1.993710 -67.305000 11.754300 -0.000000 0.000003 -0.000047 -0.000532 -16.598200 -2.192510 6.469440 -0.000001 179.580000 12.763400 -179.680000 -39.081100 -0.002282 -0.040193 0.005869 -0.007170 19.556500 -40.985400 0.000008 0.000006 4.520640 7.265390 -66.596500 -11.754300 -0.000006 -0.000006 -0.008317 -0.090599 -20.262700
0.000000 0.000000 0.000000 0.000000 0.000000 -0.000000 -0.203287 92.239900 0.457052 87.813800 -1.405100 3.929410 15.735700 0.000005 -0.000001 97.918000 85.956100 -98.523200 8.984550 -0.406207 -0.000000 0.251100 1.153480 -1.212130 16.377300 -0.000001 -0.000001 4.527810 -2.310880 0.589122 6.456720 -0.000001 -0.000000 1.558260 -2.066840 -6.093180 12.994200 -0.242716 4.980390 -90.018000 0.055849 -72.191800 5.348090 -0.000007 -0.000001 -68.034100 37.842900 -12.176200 24.328600 0.000019 0.000005 0.882053 2.161920 -22.200600 22.291600 -0.000001 0.000005 5.630580 5.482260 -5.834900 12.994500 -0.242716 -4.980390 89.323100 2.020540 -71.474500 -5.348130 -0.000001 -0.000004 -71.599500 -24.383800 -83.441000 -24.328900 0.000322 -0.000009 11.740700 -0.773863 -93.719300 -22.291500 -0.000108 -0.000004 25.928800 5.374960 -2.140820 -2.192480 -6.469440 -0.000000 -175.713000 -5.717200 -1.768940 39.081100 -0.000007 -0.000012 -0.111277 0.265157 22.766100 40.985400 -0.000006 -0.000013 -0.170853 2.078090 -67.277200 11.754300 -0.000000 0.000003 -0.000050 -0.000565 -16.599500 -2.192510 6.469440 -0.000001 179.597000 12.718500 -179.664000 -39.081100 -0.002282 -0.040193 0.009381 -0.017098 19.512300 -40.985400 0.000008 0.000006 4.567340 7.237360 -66.562700 -11.754300 -0.000006 -0.000006 -0.008208 -0.089725 -20.227000
